<svg xmlns="http://www.w3.org/2000/svg" width="25.533" height="25.533" viewBox="0 0 25.533 25.533">
  <g id="Group_1351" data-name="Group 1351" transform="translate(-108.449 -582)">
    <path id="Path_8" data-name="Path 8" d="M211.887,209.444A2.444,2.444,0,1,1,209.444,207,2.443,2.443,0,0,1,211.887,209.444Zm0,0" transform="translate(-88.228 385.323)"/>
    <path id="Path_9" data-name="Path 9" d="M147.209,137.175a2.427,2.427,0,0,0-1.391-1.391,4.055,4.055,0,0,0-1.361-.252c-.773-.035-1-.043-2.962-.043s-2.189.007-2.962.043a4.058,4.058,0,0,0-1.361.252,2.428,2.428,0,0,0-1.391,1.391,4.056,4.056,0,0,0-.252,1.361c-.035.773-.043,1-.043,2.962s.008,2.189.043,2.962a4.055,4.055,0,0,0,.252,1.361,2.427,2.427,0,0,0,1.391,1.391,4.05,4.05,0,0,0,1.361.252c.773.035,1,.043,2.962.043s2.19-.007,2.962-.043a4.05,4.05,0,0,0,1.361-.252,2.427,2.427,0,0,0,1.391-1.391,4.059,4.059,0,0,0,.252-1.361c.035-.773.043-1,.043-2.962s-.007-2.189-.043-2.962A4.05,4.05,0,0,0,147.209,137.175Zm-5.715,8.088a3.764,3.764,0,1,1,3.764-3.764A3.764,3.764,0,0,1,141.495,145.263Zm3.913-6.8a.88.88,0,1,1,.88-.88A.88.88,0,0,1,145.408,138.465Zm0,0" transform="translate(-20.279 453.268)"/>
    <path id="Path_10" data-name="Path 10" d="M12.766,0A12.766,12.766,0,1,0,25.533,12.766,12.768,12.768,0,0,0,12.766,0Zm7.286,15.789a5.378,5.378,0,0,1-.341,1.779,3.748,3.748,0,0,1-2.144,2.144,5.382,5.382,0,0,1-1.779.341c-.782.036-1.031.044-3.022.044s-2.241-.009-3.023-.044a5.382,5.382,0,0,1-1.779-.341,3.748,3.748,0,0,1-2.144-2.144,5.377,5.377,0,0,1-.341-1.779c-.036-.782-.044-1.032-.044-3.023s.008-2.241.044-3.022A5.379,5.379,0,0,1,5.82,7.965,3.751,3.751,0,0,1,7.965,5.821,5.383,5.383,0,0,1,9.744,5.48c.782-.036,1.031-.044,3.022-.044s2.241.009,3.022.044a5.385,5.385,0,0,1,1.779.34,3.749,3.749,0,0,1,2.144,2.144,5.378,5.378,0,0,1,.341,1.779c.036.782.044,1.031.044,3.022S20.089,15.007,20.053,15.789Zm0,0" transform="translate(108.449 582)"/>
  </g>
</svg>
