<svg xmlns="http://www.w3.org/2000/svg" width="25.436" height="25.436" viewBox="0 0 25.436 25.436">
  <g id="Group_1350" data-name="Group 1350" transform="translate(-189.346 -582)">
    <path id="Path_11" data-name="Path 11" d="M224.113,212.8l4.137-2.383-4.137-2.383Zm0,0" transform="translate(-23.633 384.296)"/>
    <path id="Path_12" data-name="Path 12" d="M12.718,0A12.718,12.718,0,1,0,25.436,12.718,12.719,12.719,0,0,0,12.718,0Zm7.947,12.731a20.99,20.99,0,0,1-.327,3.823,1.991,1.991,0,0,1-1.4,1.4,48.338,48.338,0,0,1-6.219.327,46.608,46.608,0,0,1-6.219-.34,1.992,1.992,0,0,1-1.4-1.4,20.9,20.9,0,0,1-.327-3.823A20.976,20.976,0,0,1,5.1,8.9,2.032,2.032,0,0,1,6.5,7.481a48.338,48.338,0,0,1,6.219-.327,46.509,46.509,0,0,1,6.219.34,1.992,1.992,0,0,1,1.4,1.4,19.919,19.919,0,0,1,.327,3.836Zm0,0" transform="translate(189.346 582)"/>
  </g>
</svg>
