<svg xmlns="http://www.w3.org/2000/svg" width="25.436" height="25.436" viewBox="0 0 25.436 25.436">
  <path id="twitter" d="M12.718,0A12.718,12.718,0,1,0,25.436,12.718,12.719,12.719,0,0,0,12.718,0Zm5.807,9.916q.008.188.008.377A8.249,8.249,0,0,1,10.227,18.6h0a8.263,8.263,0,0,1-4.474-1.311,5.937,5.937,0,0,0,.7.04,5.857,5.857,0,0,0,3.626-1.25,2.922,2.922,0,0,1-2.727-2.028A2.909,2.909,0,0,0,8.666,14a2.92,2.92,0,0,1-2.342-2.861c0-.013,0-.025,0-.037a2.9,2.9,0,0,0,1.322.365,2.922,2.922,0,0,1-.9-3.9,8.288,8.288,0,0,0,6.017,3.05,2.921,2.921,0,0,1,4.974-2.662,5.855,5.855,0,0,0,1.854-.709A2.93,2.93,0,0,1,18.3,8.864a5.822,5.822,0,0,0,1.676-.46,5.932,5.932,0,0,1-1.456,1.512Zm0,0"/>
</svg>
